<svg width="32" height="32" viewBox="0 0 32 32" fill="none" xmlns="http://www.w3.org/2000/svg">
<path d="M27.3334 15.0667V9.38669C27.3334 4.01335 26.08 2.66667 21.04 2.66667H10.96C5.92002 2.66667 4.66669 4.01335 4.66669 9.38669V24.4C4.66669 27.9467 6.61337 28.7867 8.97337 26.2533L8.98667 26.24C10.08 25.08 11.7467 25.1733 12.6933 26.44L14.04 28.24" stroke="#011627" stroke-width="2.16802" stroke-linecap="round" stroke-linejoin="round"/>
<path d="M24.2667 28.5333C26.6231 28.5333 28.5333 26.6231 28.5333 24.2667C28.5333 21.9103 26.6231 20 24.2667 20C21.9103 20 20 21.9103 20 24.2667C20 26.6231 21.9103 28.5333 24.2667 28.5333Z" stroke="#011627" stroke-width="2.16802" stroke-linecap="round" stroke-linejoin="round"/>
<path d="M29.3333 29.3333L28 28" stroke="#011627" stroke-width="2.16802" stroke-linecap="round" stroke-linejoin="round"/>
<path d="M10.6667 10.103H21.3334" stroke="#ED8F03" stroke-width="2.16802" stroke-linecap="round" stroke-linejoin="round"/>
<path d="M12 15.4363H20" stroke="#ED8F03" stroke-width="2.16802" stroke-linecap="round" stroke-linejoin="round"/>
</svg>
