<svg width="24" height="24" viewBox="0 0 24 24" fill="none" xmlns="http://www.w3.org/2000/svg">
<path d="M19.7719 22.2001C19.7719 22.5561 19.6665 22.9041 19.469 23.2001C19.2715 23.4961 18.9908 23.7268 18.6623 23.863C18.3339 23.9992 17.9725 24.0349 17.6238 23.9654C17.2751 23.896 16.9549 23.7245 16.7035 23.4728C16.4521 23.2211 16.2809 22.9004 16.2116 22.5512C16.1422 22.2021 16.1778 21.8402 16.3138 21.5113C16.4499 21.1824 16.6803 20.9013 16.9759 20.7035C17.2715 20.5057 17.619 20.4001 17.9745 20.4001C18.4512 20.4001 18.9084 20.5898 19.2455 20.9273C19.5825 21.2649 19.7719 21.7227 19.7719 22.2001ZM10.7847 20.4001C10.4292 20.4001 10.0817 20.5057 9.78608 20.7035C9.49049 20.9013 9.26011 21.1824 9.12406 21.5113C8.98802 21.8402 8.95242 22.2021 9.02178 22.5512C9.09113 22.9004 9.26232 23.2211 9.5137 23.4728C9.76508 23.7245 10.0854 23.896 10.434 23.9654C10.7827 24.0349 11.1441 23.9992 11.4725 23.863C11.801 23.7268 12.0817 23.4961 12.2792 23.2001C12.4767 22.9041 12.5821 22.5561 12.5821 22.2001C12.5821 21.7227 12.3928 21.2649 12.0557 20.9273C11.7186 20.5898 11.2614 20.4001 10.7847 20.4001ZM15.2304 9.25249L20.0236 4.45265C20.2492 4.2267 20.376 3.92023 20.376 3.60068C20.376 3.28113 20.2492 2.97467 20.0236 2.74871C19.7979 2.52275 19.4919 2.39581 19.1728 2.39581C18.8537 2.39581 18.5476 2.52275 18.322 2.74871L14.3796 6.70858L12.8338 5.14863C12.6081 4.92267 12.3021 4.79573 11.983 4.79573C11.6639 4.79573 11.3578 4.92267 11.1322 5.14863C10.9065 5.37459 10.7798 5.68105 10.7798 6.0006C10.7798 6.32015 10.9065 6.62662 11.1322 6.85257L13.5288 9.25249C13.6402 9.36497 13.7727 9.45424 13.9187 9.51516C14.0648 9.57608 14.2214 9.60744 14.3796 9.60744C14.5378 9.60744 14.6944 9.57608 14.8404 9.51516C14.9864 9.45424 15.119 9.36497 15.2304 9.25249Z" fill="#ED8F03"/>
<path d="M19.4364 18.0002H9.34672C8.79437 18.0143 8.2541 17.8369 7.81736 17.498C7.38063 17.159 7.07427 16.6794 6.95013 16.1402L3.83455 2.40071H1.1983C0.880489 2.40071 0.575698 2.27428 0.350973 2.04925C0.126249 1.82421 0 1.51899 0 1.20075C0 0.882496 0.126249 0.577281 0.350973 0.352245C0.575698 0.127209 0.880489 0.000784963 1.1983 0.000784963H3.83455C4.38691 -0.0133607 4.92718 0.16405 5.36391 0.502988C5.80064 0.841925 6.10701 1.32157 6.23115 1.86072L9.34672 15.6003H19.4364L21.5694 6.91256C21.6456 6.59431 21.845 6.31943 22.1237 6.14841C22.4023 5.97738 22.7374 5.92421 23.0552 6.00059C23.3731 6.07697 23.6475 6.27664 23.8183 6.55569C23.9891 6.83473 24.0422 7.17029 23.966 7.48854L21.797 16.1882C21.6648 16.7124 21.3598 17.1764 20.9314 17.5053C20.5029 17.8342 19.9761 18.0085 19.4364 18.0002Z" fill="#011627"/>
</svg>
