<svg width="32" height="32" viewBox="0 0 32 32" fill="none" xmlns="http://www.w3.org/2000/svg">
<g clip-path="url(#clip0_1_73)">
<path d="M16 32C7.17813 32 0 24.8219 0 16C0 7.17813 7.17813 0 16 0C24.8219 0 32 7.17813 32 16C32 24.8219 24.8219 32 16 32ZM16 2.66563C8.64688 2.66563 2.66563 8.64688 2.66563 16C2.66563 23.3531 8.64688 29.3344 16 29.3344C23.3531 29.3344 29.3344 23.3531 29.3344 16C29.3344 8.64688 23.3531 2.66563 16 2.66563Z" fill="#011627"/>
<path d="M21.3344 17.3344H10.6656C9.92811 17.3344 9.33124 16.7375 9.33124 16C9.33124 15.2625 9.92811 14.6656 10.6656 14.6656H21.3312C22.0687 14.6656 22.6656 15.2625 22.6656 16C22.6656 16.7375 22.0687 17.3344 21.3344 17.3344Z" fill="#ED8F03"/>
<path d="M16 22.6656C15.2625 22.6656 14.6656 22.0688 14.6656 21.3313V10.6656C14.6656 9.92813 15.2625 9.33125 16 9.33125C16.7375 9.33125 17.3344 9.92813 17.3344 10.6656V21.3313C17.3344 22.0688 16.7375 22.6656 16 22.6656Z" fill="#ED8F03"/>
</g>
<defs>
<clipPath id="clip0_1_73">
<rect width="32" height="32" fill="white"/>
</clipPath>
</defs>
</svg>
