<svg width="26" height="26" viewBox="0 0 26 26" fill="none" xmlns="http://www.w3.org/2000/svg">
<path d="M17.5139 6.49999C17.4142 6.49999 17.3333 6.58083 17.3333 6.68054V8.4861C17.3333 8.58582 17.4142 8.66666 17.5139 8.66666H19.3194C19.4192 8.66666 19.5 8.58582 19.5 8.4861V6.68054C19.5 6.58083 19.4192 6.49999 19.3194 6.49999H17.5139ZM17.3333 19.5V18.9583C17.3333 18.6592 17.5758 18.4167 17.875 18.4167C18.1742 18.4167 18.4167 18.6592 18.4167 18.9583V19.5H19.5V18.9583C19.5 18.6592 19.7425 18.4167 20.0417 18.4167C20.3408 18.4167 20.5833 18.6592 20.5833 18.9583V20.0417C20.5833 20.3408 20.3408 20.5833 20.0417 20.5833H15.7083C15.4092 20.5833 15.1667 20.3408 15.1667 20.0417V18.9583C15.1667 18.6592 15.4092 18.4167 15.7083 18.4167C16.0075 18.4167 16.25 18.6592 16.25 18.9583V19.5H17.3333ZM14.0833 11.9167H14.625C14.9242 11.9167 15.1667 12.1592 15.1667 12.4583C15.1667 12.7575 14.9242 13 14.625 13H12.4583C12.1592 13 11.9167 12.7575 11.9167 12.4583C11.9167 12.1592 12.1592 11.9167 12.4583 11.9167H13V10.8333H11.375C11.0758 10.8333 10.8333 10.5908 10.8333 10.2917C10.8333 9.9925 11.0758 9.74999 11.375 9.74999H14.625C14.9242 9.74999 15.1667 9.9925 15.1667 10.2917C15.1667 10.5908 14.9242 10.8333 14.625 10.8333H14.0833V11.9167ZM19.5 13H18.9583C18.6592 13 18.4167 12.7575 18.4167 12.4583C18.4167 12.1592 18.6592 11.9167 18.9583 11.9167H19.5V11.375C19.5 11.0758 19.7425 10.8333 20.0417 10.8333C20.3408 10.8333 20.5833 11.0758 20.5833 11.375V13.5417C20.5833 13.8408 20.3408 14.0833 20.0417 14.0833C19.7425 14.0833 19.5 13.8408 19.5 13.5417V13ZM14.0833 15.1667H13.5417C13.2425 15.1667 13 14.9241 13 14.625C13 14.3258 13.2425 14.0833 13.5417 14.0833H14.625C14.9242 14.0833 15.1667 14.3258 15.1667 14.625V16.7917C15.1667 17.0908 14.9242 17.3333 14.625 17.3333H11.375C11.0758 17.3333 10.8333 17.0908 10.8333 16.7917C10.8333 16.4925 11.0758 16.25 11.375 16.25H14.0833V15.1667ZM17.5139 5.41666H19.3194C20.0175 5.41666 20.5833 5.98252 20.5833 6.68054V8.4861C20.5833 9.18413 20.0175 9.74999 19.3194 9.74999H17.5139C16.8159 9.74999 16.25 9.18413 16.25 8.4861V6.68054C16.25 5.98252 16.8159 5.41666 17.5139 5.41666ZM6.68055 5.41666H8.48611C9.18413 5.41666 9.75 5.98252 9.75 6.68054V8.4861C9.75 9.18413 9.18413 9.74999 8.48611 9.74999H6.68055C5.98253 9.74999 5.41666 9.18413 5.41666 8.4861V6.68054C5.41666 5.98252 5.98253 5.41666 6.68055 5.41666ZM6.68055 6.49999C6.58083 6.49999 6.5 6.58083 6.5 6.68054V8.4861C6.5 8.58582 6.58083 8.66666 6.68055 8.66666H8.48611C8.58583 8.66666 8.66666 8.58582 8.66666 8.4861V6.68054C8.66666 6.58083 8.58583 6.49999 8.48611 6.49999H6.68055ZM6.68055 16.25H8.48611C9.18413 16.25 9.75 16.8159 9.75 17.5139V19.3194C9.75 20.0175 9.18413 20.5833 8.48611 20.5833H6.68055C5.98253 20.5833 5.41666 20.0175 5.41666 19.3194V17.5139C5.41666 16.8159 5.98253 16.25 6.68055 16.25ZM6.68055 17.3333C6.58083 17.3333 6.5 17.4142 6.5 17.5139V19.3194C6.5 19.4192 6.58083 19.5 6.68055 19.5H8.48611C8.58583 19.5 8.66666 19.4192 8.66666 19.3194V17.5139C8.66666 17.4142 8.58583 17.3333 8.48611 17.3333H6.68055ZM14.0833 6.49999H11.375C11.0758 6.49999 10.8333 6.25748 10.8333 5.95832C10.8333 5.65917 11.0758 5.41666 11.375 5.41666H14.625C14.9242 5.41666 15.1667 5.65917 15.1667 5.95832V8.12499C15.1667 8.42414 14.9242 8.66666 14.625 8.66666C14.3258 8.66666 14.0833 8.42414 14.0833 8.12499V6.49999ZM11.375 8.66666C11.0758 8.66666 10.8333 8.42414 10.8333 8.12499C10.8333 7.82584 11.0758 7.58332 11.375 7.58332H12.4583C12.7575 7.58332 13 7.82584 13 8.12499C13 8.42414 12.7575 8.66666 12.4583 8.66666H11.375ZM5.95833 15.1667C5.65918 15.1667 5.41666 14.9241 5.41666 14.625C5.41666 14.3258 5.65918 14.0833 5.95833 14.0833H8.125C8.42415 14.0833 8.66666 14.3258 8.66666 14.625C8.66666 14.9241 8.42415 15.1667 8.125 15.1667H5.95833ZM10.2917 15.1667C9.99251 15.1667 9.75 14.9241 9.75 14.625C9.75 14.3258 9.99251 14.0833 10.2917 14.0833H11.375C11.6742 14.0833 11.9167 14.3258 11.9167 14.625C11.9167 14.9241 11.6742 15.1667 11.375 15.1667H10.2917ZM11.9167 19.5V20.0417C11.9167 20.3408 11.6742 20.5833 11.375 20.5833C11.0758 20.5833 10.8333 20.3408 10.8333 20.0417V18.9583C10.8333 18.6592 11.0758 18.4167 11.375 18.4167H13.5417C13.8408 18.4167 14.0833 18.6592 14.0833 18.9583C14.0833 19.2575 13.8408 19.5 13.5417 19.5H11.9167ZM9.75 11.9167H10.2917C10.5908 11.9167 10.8333 12.1592 10.8333 12.4583C10.8333 12.7575 10.5908 13 10.2917 13H9.20833C8.90918 13 8.66666 12.7575 8.66666 12.4583V11.9167H8.125C7.82584 11.9167 7.58333 11.6741 7.58333 11.375C7.58333 11.0758 7.82584 10.8333 8.125 10.8333H9.20833C9.50748 10.8333 9.75 11.0758 9.75 11.375V11.9167ZM5.41666 11.375C5.41666 11.0758 5.65918 10.8333 5.95833 10.8333C6.25748 10.8333 6.5 11.0758 6.5 11.375V12.4583C6.5 12.7575 6.25748 13 5.95833 13C5.65918 13 5.41666 12.7575 5.41666 12.4583V11.375ZM16.25 11.375C16.25 11.0758 16.4925 10.8333 16.7917 10.8333C17.0908 10.8333 17.3333 11.0758 17.3333 11.375V13.5417C17.3333 13.8408 17.0908 14.0833 16.7917 14.0833C16.4925 14.0833 16.25 13.8408 16.25 13.5417V11.375ZM18.4167 16.25V15.7083C18.4167 15.4092 18.6592 15.1667 18.9583 15.1667H20.0417C20.3408 15.1667 20.5833 15.4092 20.5833 15.7083C20.5833 16.0075 20.3408 16.25 20.0417 16.25H19.5V16.7917C19.5 17.0908 19.2575 17.3333 18.9583 17.3333H16.7917C16.4925 17.3333 16.25 17.0908 16.25 16.7917V15.7083C16.25 15.4092 16.4925 15.1667 16.7917 15.1667C17.0908 15.1667 17.3333 15.4092 17.3333 15.7083V16.25H18.4167ZM3.25 7.04166C3.25 7.34081 3.00748 7.58332 2.70833 7.58332C2.40918 7.58332 2.16666 7.34081 2.16666 7.04166V4.87499C2.16666 3.37922 3.37923 2.16666 4.875 2.16666H7.04166C7.34082 2.16666 7.58333 2.40917 7.58333 2.70832C7.58333 3.00748 7.34082 3.24999 7.04166 3.24999H4.875C3.97753 3.24999 3.25 3.97753 3.25 4.87499V7.04166ZM18.9583 3.24999C18.6592 3.24999 18.4167 3.00748 18.4167 2.70832C18.4167 2.40917 18.6592 2.16666 18.9583 2.16666H21.125C22.6208 2.16666 23.8333 3.37922 23.8333 4.87499V7.04166C23.8333 7.34081 23.5908 7.58332 23.2917 7.58332C22.9925 7.58332 22.75 7.34081 22.75 7.04166V4.87499C22.75 3.97753 22.0225 3.24999 21.125 3.24999H18.9583ZM7.04166 22.75C7.34082 22.75 7.58333 22.9925 7.58333 23.2917C7.58333 23.5908 7.34082 23.8333 7.04166 23.8333H4.875C3.37923 23.8333 2.16666 22.6208 2.16666 21.125V18.9583C2.16666 18.6592 2.40918 18.4167 2.70833 18.4167C3.00748 18.4167 3.25 18.6592 3.25 18.9583V21.125C3.25 22.0225 3.97753 22.75 4.875 22.75H7.04166ZM22.75 18.9583C22.75 18.6592 22.9925 18.4167 23.2917 18.4167C23.5908 18.4167 23.8333 18.6592 23.8333 18.9583V21.125C23.8333 22.6208 22.6208 23.8333 21.125 23.8333H18.9583C18.6592 23.8333 18.4167 23.5908 18.4167 23.2917C18.4167 22.9925 18.6592 22.75 18.9583 22.75H21.125C22.0225 22.75 22.75 22.0225 22.75 21.125V18.9583Z" fill="#011627"/>
</svg>
