<svg width="27" height="27" viewBox="0 0 27 27" fill="none" xmlns="http://www.w3.org/2000/svg">
<path d="M23.068 10.0744L25.5618 12.5681C25.6848 12.6901 25.7824 12.8353 25.8491 12.9952C25.9157 13.1552 25.95 13.3267 25.95 13.5C25.95 13.6733 25.9157 13.8448 25.8491 14.0048C25.7824 14.1647 25.6848 14.3099 25.5618 14.4319L23.068 16.9256C22.8256 17.1701 22.6889 17.5 22.6874 17.8443V21.3749C22.6874 21.723 22.5491 22.0569 22.303 22.303C22.0569 22.5491 21.723 22.6874 21.3749 22.6874H17.8443C17.5 22.6889 17.17 22.8256 16.9256 23.068L14.4319 25.5618C14.3098 25.6848 14.1647 25.7824 14.0047 25.8491C13.8448 25.9157 13.6732 25.95 13.5 25.95C13.3267 25.95 13.1552 25.9157 12.9952 25.8491C12.8353 25.7824 12.6901 25.6848 12.5681 25.5618L10.0744 23.068C9.82992 22.8256 9.49996 22.6889 9.15564 22.6874H5.62505C5.27695 22.6874 4.94312 22.5491 4.69698 22.303C4.45084 22.0569 4.31256 21.723 4.31256 21.3749V17.8443C4.31111 17.5 4.17441 17.1701 3.93194 16.9256L1.43821 14.4319C1.31519 14.3099 1.21755 14.1647 1.15092 14.0048C1.08428 13.8448 1.04998 13.6733 1.04998 13.5C1.04998 13.3267 1.08428 13.1552 1.15092 12.9952C1.21755 12.8353 1.31519 12.6901 1.43821 12.5681L3.93194 10.0744C4.17441 9.82994 4.31111 9.49998 4.31256 9.15566V5.62506C4.31256 5.27697 4.45084 4.94313 4.69698 4.69699C4.94312 4.45086 5.27695 4.31258 5.62505 4.31258H9.15564C9.49996 4.31113 9.82992 4.17443 10.0744 3.93195L12.5681 1.43822C12.6901 1.31521 12.8353 1.21756 12.9952 1.15093C13.1552 1.0843 13.3267 1.04999 13.5 1.04999C13.6732 1.04999 13.8448 1.0843 14.0047 1.15093C14.1647 1.21756 14.3098 1.31521 14.4319 1.43822L16.9256 3.93195C17.17 4.17443 17.5 4.31113 17.8443 4.31258H21.3749C21.723 4.31258 22.0569 4.45086 22.303 4.69699C22.5491 4.94313 22.6874 5.27697 22.6874 5.62506V9.15566C22.6889 9.49998 22.8256 9.82994 23.068 10.0744Z" stroke="#011627" stroke-width="2.02408" stroke-linecap="round" stroke-linejoin="round"/>
</svg>
